<svg width="32" height="32" viewBox="0 0 32 32" fill="none" xmlns="http://www.w3.org/2000/svg">
<path d="M22.2667 10.6667C22.0013 9.91365 21.5166 9.25729 20.8751 8.78205C20.2335 8.30681 19.4644 8.03444 18.6667 8H13.3334C12.2725 8 11.2551 8.42143 10.5049 9.17157C9.7548 9.92172 9.33337 10.9391 9.33337 12C9.33337 13.0609 9.7548 14.0783 10.5049 14.8284C11.2551 15.5786 12.2725 16 13.3334 16H18.6667C19.7276 16 20.745 16.4214 21.4951 17.1716C22.2453 17.9217 22.6667 18.9391 22.6667 20C22.6667 21.0609 22.2453 22.0783 21.4951 22.8284C20.745 23.5786 19.7276 24 18.6667 24H13.3334C12.5357 23.9656 11.7666 23.6932 11.125 23.218C10.4834 22.7427 9.99877 22.0863 9.73337 21.3333" stroke="white" stroke-width="2.66667" stroke-linecap="round" stroke-linejoin="round"/>
<path d="M16 4V8M16 24V28" stroke="white" stroke-width="2.66667" stroke-linecap="round" stroke-linejoin="round"/>
</svg>
