<svg width="32" height="32" viewBox="0 0 32 32" fill="none" xmlns="http://www.w3.org/2000/svg">
<path d="M16 4C19.1144 6.75543 23.1793 8.19009 27.3333 8C27.9381 10.0574 28.1232 12.2153 27.8775 14.3456C27.6318 16.4759 26.9604 18.535 25.9032 20.4007C24.846 22.2664 23.4245 23.9005 21.7233 25.206C20.022 26.5114 18.0757 27.4616 16 28C13.9243 27.4616 11.978 26.5114 10.2767 25.206C8.57548 23.9005 7.15402 22.2664 6.0968 20.4007C5.03958 18.535 4.36818 16.4759 4.1225 14.3456C3.87683 12.2153 4.06188 10.0574 4.66667 8C8.82071 8.19009 12.8856 6.75543 16 4" stroke="white" stroke-width="2.66667" stroke-linecap="round" stroke-linejoin="round"/>
</svg>
